/* XPM */
static char *_f091601ad724ed7911e7b8f35ee6c5eziuMoiAiWSobqt2f[] = {
/* columns rows colors chars-per-pixel */
"100 100 89 1 ",
"  c #092A44",
". c #04243E",
"X c #172E40",
"o c #0D2D47",
"O c #072841",
"+ c #052844",
"@ c #FFE847",
"# c #06253E",
"$ c #FEE646",
"% c #FFFAA4",
"& c #11314A",
"* c #2B3139",
"= c #555555",
"- c #464747",
"; c #FEE042",
": c #FFF9A2",
"> c #112C42",
", c #EA680D",
"< c #686461",
"1 c #FEEC62",
"2 c #FAE347",
"3 c #1B3A52",
"4 c #FFDB37",
"5 c #F36B0B",
"6 c #212F3C",
"7 c #FFE94D",
"8 c #D65D0E",
"9 c #383536",
"0 c #FFF17C",
"q c #CFB65F",
"w c #4A4949",
"e c #978175",
"r c #FFF796",
"t c #524D4C",
"y c #FFF89C",
"u c #A64211",
"i c gray36",
"p c #FEE953",
"a c #DE630F",
"s c #F8770F",
"d c #0E273B",
"f c #FFF489",
"g c #203844",
"h c #533A2E",
"j c #615F5F",
"k c #413935",
"l c #FFC016",
"z c #BB490C",
"x c #944C1E",
"c c #373F44",
"v c #4F6045",
"b c #F88315",
"n c #A3541D",
"m c #66422C",
"M c #C15C16",
"N c #FEEA59",
"B c #F6DF49",
"V c #8D7B6E",
"C c #FFD029",
"Z c #C8BA44",
"A c #FAB32D",
"S c #A29B46",
"D c #F7A427",
"F c #D8C747",
"G c #A08E68",
"H c #FFEE6C",
"J c #40513F",
"K c #F9C538",
"L c #F88D1B",
"P c #2A2B2B",
"I c #766C67",
"U c #E7D04C",
"Y c #FFF075",
"T c #B9AB4B",
"R c #626A3F",
"E c #6F3923",
"W c #874D25",
"Q c #AE571B",
"! c #7D3C1E",
"~ c #CAB35D",
"^ c #B9A16B",
"/ c #808544",
"( c #FCCF3B",
") c #EFDB47",
"_ c #AE450F",
"` c #C07624",
"' c #6F5F57",
"] c #435542",
"[ c #794929",
/* pixels */
"                                                                                                    ",
" o&o                                                                                                ",
" &3o                                                                                                ",
" oo                          &3o                                                                o3& ",
"                             o3o                   o&                                           o3& ",
"                                                   &3o                                              ",
"                                                   o&                                               ",
"                                                                                                    ",
"                                                                                                    ",
"                                                                    o3o                             ",
"                                                                    o3&                             ",
"                                                                     o                              ",
"                                                                                                    ",
"                                                                                                    ",
"                                                                                       &3o          ",
"                                                                                       &3o          ",
"                                                                                        O           ",
"    &3o                                                                                             ",
"    o3o                                                                                             ",
"                                                                                                    ",
"               &3o                               XE!E6                                              ",
"               &3o                              +6_zu*                                              ",
"                                                 688u*                                              ",
"                                                +6a8u*o3o                                           ",
"                                               XX9a8u*&3&                                           ",
"                                             +*xuu,8u* o                                            ",
"                            &&                *uz858u*                                              ",
"                            33               +*u8558u*                                              ",
"                            oo                *u8,zzu*                                              ",
"                                              *u8,zxE6                                              ",
"                                              *u8,zm                                                ",
"                                              *u8ah6>E!!*                                           ",
"                                              6!Ma6+>uz_9                                           ",
"                                                xa6+XMa_9                                           ",
"                                                9h>9!aa_9                                           ",
"                                                  +hz,az9+                      o                   ",
"                                                   hz,5,k+                     &3&                  ",
"                                                  +hz,55h+                     &&o                  ",
"                                                   hza,ak+                                          ",
"                                                  +hzzx*>                                           ",
"    o&o                                            9EEh+                                            ",
"    &3&                                        >>>    +                                             ",
"     &                                       +*QMn6                                                 ",
"                                 &o          9m,5a6+                                                ",
"                                o3&          n55586                                                 ",
"                                o&o          nsAL,Qm                          3&                    ",
"                                             nb;AbsW+                         33                    ",
"                                             nb;$(sW+                                               ",
"                                          +*W8b;4lsMW6+                                             ",
"                                          Xm5sL;Clbs,hX                                             ",
"                                         >na5A;$;;;D5ax                                             ",
"                                         >MsD(@$$$@KDsn                                             ",
"                                        >6ML$$$$@7$$;bQX                                            ",
"                                       +hM,L$$$$Yfp$;baM9+                                          ",
"                                       +m5LA$$$$0yp$;Db5Wk                                          ",
"                                       omsK$$$$$0yp$$@K55M>                                         ",
"                                      gSZK;4l4@$0:fH$$;KbM>                                         ",
"                                     +gF$4$4l4@$0%%0$$$$D`>                                         ",
"                                      gF4l4@$$$$0%%0$$$$$Z>                                         ",
"                                      gFZRRS$@$$0%%0$CC$@Z>                                         ",
"                                      gT/++]F)@$Yr%0;lC$US>                                         ",
"                                     + gX  ogT@$7Ny0$;;2RX                                          ",
"                                     k[X+ +c/F@$$py0$$$2v+                                          ",
"                                    +W,*+ +v$@$$$py0$$$2v+    >X                                    ",
"                                  +++[a*+ +v2$$$$py0$$$2v+   +mM*+                                  ",
"                                  kmmQa*+ +v2$$$$pyfH7$2v+  XhQa*+                                  ",
"                                  x5,,8*+ ov2$$@@pr%yN$2v+ +*8,8*+                                  ",
"                                  *kkk9> >SFl4pffr:%yN$2v+  >9k9>                                   ",
"OOOOOOOOOOOOOOOOOOOOOOOOOOOOOOOOO +++++OO>Z;l4N:%%%%yN$2v+   +++                                    ",
"#########################################>Z@$$Ny%%%%yN$2v+                                          ",
"####################################...#.dZ@$Hf:%%%%:fH$Z/O.6xnx6OOOOOOOOOOOOOOOOOOOOOOOOOOOOOOOOOOO",
"###################################d*9*dXJZ@$f%%%%%%%%f$@FJX*,s,h6##################################",
"##################################.*8,86R)2$$f%%%%:%%%f$$2)RgUD5,x##################################",
"##################################hn,LD*R@$p0r%%:%%%%%f$$$@TSB(Dsx.#################################",
"##################################xssA)J/@$1%%%%%%:%%%fp@$;$@$@;bn6d################################",
"#################################.xs(;2U)$$1:%%%:%%%%::r14l4@$$;s,89.###############################",
"###############################.6m`A;$$@@$$1:%%%%%:%:%::14lC@$$;AL,k.###############################",
"###############################.k,A@$$$$$$$1:%:%:%%%%%%:14l4@$$$@A,k.###############################",
"###############################.JK;$$$$@@$$1:%%%%%:%%:%:1$4;$$$$$;KJ.###############################",
"###############################.JB@71N$44$$1:%%%:%%%%%%:1$@$$$$$$@BJ.###############################",
"###############################.]B$pyY;lC$$1:%%:%%:%:%%:1$$$$$$$$$B].###############################",
"#############################XwjG2$pyr0;4$$1:%%%%%%%%%%:1$$$@$$$$@2G=###############################",
"############################.gjV^2$pfy:Hp$$1:%%:%%:%%:%:1$$;4$$$$BUG<XO#############################",
"#############################giV^2$$$Y%:0$$1:%%%%%%:%%%:1$$Cl;$$@FeI=-X.############################",
"############################g-i<V^U@$Y%%0$$pHr%%%%%%%%%:1$$44$@2qGIj=wX.############################",
"##########################.>ctii<V~B$HrrY$$$$0rrrrrrrrrrN$$@@$BUGIii=wX.############################",
"###########################OctiijjV^B7777@@@@777p7p77777@@@@@@qG<jitww6.############################",
"##########################.>ct===iIV~TS~qqqqqqqqTS~qqqqqqqqTS~GIji=t-g>#############################",
"###########################Oc--wtii<e'tVeeeeeeee'tVeeeeeeee'tVIii=w-c###############################",
"############################>>>cwt=j<t9i<<<<<<<<w9j<<<<<<<<-kjjitwwgd###############################",
"############################..#gcwt==cPt========cPt========9Pt==w-c>.###############################",
"###############################.X---w9P-w-------9P-w------w*P---wc##################################",
"################################OXXXXddXXXXXXXXXddXXXXXXXXXddXXXXd##################################",
"#################################....###........###........###...###################################",
"####################################################################################################",
"####################################################################################################",
"####################################################################################################",
"####################################################################################################",
"####################################################################################################",
"####################################################################################################"
};
