/* XPM */
static char *_9b170bef596420ab6b86c49bf7af774Pc8v6ZXqUkp3oBGo[] = {
/* columns rows colors chars-per-pixel */
"100 100 28 1 ",
"  c #2D2718",
". c #735B46",
"X c #796049",
"o c #7E654D",
"O c #6E5742",
"+ c #2A230E",
"@ c #947B62",
"# c #69533F",
"$ c #8E755C",
"% c #2F2710",
"& c #886F57",
"* c #2A271E",
"= c #836A52",
"- c #9B8168",
"; c #2A2925",
": c #63503B",
"> c #554531",
", c #372C15",
"< c #212017",
"1 c #5C4936",
"2 c #302C1F",
"3 c #A0876F",
"4 c #2E2D29",
"5 c #4F3F2B",
"6 c #3F321B",
"7 c #473925",
"8 c #141410",
"9 c #AC937B",
/* pixels */
"6 ;+ *+++ ;; %%,2<++;;+; + 44* ;64*;;2%++;,++% <2 ;44+ *,%+%;4  ; %;;+;44;2, ;+ *+++ ;; %%,2<++;;+; ",
"2*;+ ;+% +  ; %,% ; ;;+*; *4,+;;24+%*2++%*  %*2*;;;44+ ;6%%+*2 + % **+24,**2;;+ ;+% +  ; %,% ; ;;+*;",
"<;;+ 4<* %+4;*2%%%4;;;+*4*44%%2;;2%%;** *+;4<<2  2<;;+ 4**%+*;;*42%%;<24%%2<;;+ 4<* %+4;*2%%%4;;;+*4",
"8*4 *88<*;%<8<;* *88 ; *88*2,,88<2 2<8<, %%88+ **88< * <8<  , 8<; ,%882 %%88*4 *88<*;%<8<;* *88 ; *8",
"< 2% <8+%*+ <<*; +<< , ;<<<;,%+<+422+<<24; 8<;+*2<<* * *<**%, <<;4* 8<22; << 2% <8+%*+ <<*; +<< , ;<",
"*  % + %***;% **%  + + ;*<  %%<+<;   %;22; <%;* **%;*  ;;2;%222,;,;*<*42**;;  % + %***;% **%  + + ;*",
";;4 ** 2; %  %* 42; +< 4** 42%+++<%*; *4;;   %4 **+42+* %%22++%2;2* 4;422* ;;4 ** 2; %  %* 42; +< 4*",
"42;<;<42; ,%+22 44,   44;2,   +2*%%***;444442%244<+22**;4; % 2%;*4 %;; %**;42;<;<42; ,%+*2 44,   44;",
";  ***+*<<*<+++<+  **< *<+<<<++ %% %2***<**%%+<**<+<*<* %**+ ++*  <++<++****  ***%*++*+++%++*%** %**",
"%,,%,%,<+<+<+++++%+++ %%<888<8+++++++++, %,%+++%+<+++++%+%%,,,,,,, ,,,%%++%,%,,,%,,%%,,,%,%%,%888<++",
"75>>>>>>>>>>>>>5>>>>>>>>6+<++<+<+++++%5>>>>>>>>>>>5>>>>>>>>1>>>>>>575667555>51>1>>>>>11>>>>>>,<+++8+",
".oX=&@@@@-@-333--@$@@@@-O+% , 2%,%,%%7=--@@@@$@$@@--3-33-@-@@@@$&oXXO11O.OOo===$--&@999-@@@-@>+%2%* ",
"=&$@33-@$$---33--@--@-39X+,,6 26,666,5&993-@--@-@--3333---$$@@33-@$&ooX..X.$@@9333999@=&@-393>+2,,26",
"@--3--$&$$@@--33-@@@-3&::+ 2,;26,666,7$-:=3-@@@@@@-3----@@$$$&$@33--$$$&oo&@--93399-$&&$-3&:@1+22,;6",
"-33---@$@@$@----@@@-3$77#%%;6 266666,7=-56&3-@@-@-------@$@@@$@@$@--@$&@-$@@-@33-93--@@-3$77@>+%4,*6",
"@@---3@@$$@$@@--@$@3$#1=#<+*6 *<*666,6O@&1#$3@$@--@@$@@@&@-@@--@&=o====@--933933339993-3@X1=@7<+4,**",
"$$-3----$$$$@@--@@-@.O$@>++%, 88<67667:o@$O.$3----@@$$$$$@----33@$$&&&=@-@3339993333393-XO=@X6++ , 8",
"@--3----@@$$&@@-@@@=X&$=>++26%+%,66667.XX$&oo@3--@@$&$@$@@-------@@&$@$$@@--9933393--3-&Xo&=X7+%2,++",
"$-33---@@$$$&&$@@@$&$&o=1<+,6 +,6666,5=o#X&@&$@3@@&&$$$$@@----333@@@$-@@-3$@@-3----@@$$&&&o=@>++,6 +",
"--33---@@@$$==$@@@@@$==&:%+ ,+*6,,6665$&O.=$---@@$==$$$$@@@----3--3-$----3@@-3-----@@$$@&=&$@1++ ,+2",
"-3-------@$$===&@@@-@$@@O%%*6;466666,>$-=o@3---@@&==$$$$-@--3---3-3----@---@-33---@@$@@-@$---1%%;,;4",
"333----@-$$$$=o&&&@@---3.<%26;4<*666,>$33393@--@&o=$$$$$@-@@---3-33--33--33--3--3--@@$-3--@@@1<%42;4",
"333---@@@$&&$&Xo&$$@-33-.+%26488<66,,5@3-3333--$oX=$&&$&@@@@---333-33-3333-33-------@@--@-3--1+,26;8",
"3----@-@$$&&$=o=$$$@3333O%,264** 662,5$393993$$$=oo$&&$$$@@-@@----333333-3-333-3-@@-@@-3----@1+,26;*",
"-----@-$@@$@$o&$$$@-3333.+ 264*6,622,5399999-$$$$$o$$$$$@$@-@@-----33-@-@3---3--@-@@@33333-3@1+ 66;;",
".&&&-@@@$$&$o=$@@@-@@---.%%2,2*466,2%5-999993@$$$$@@o=$$$@@-@-@$@@@3---@$-33----@-@$-39933-@-1+ ,,* ",
"66:.o&@@$$$&o=&$$-@$@--3. *42* 466 ,,>@99993-@$&&$@@==$$$$@-@$$@$$@-@@@-@--@-@@-@@@@@@-3333-@> *4;  ",
"#O.#O.X=$$@$$&=&@-$$-@$&#  *  2*26; ,5@9999-3$&$&$$&&$@@$@$$$@$--@@@@@@$-3-$@$$@@-@$@$@@@-@@@5 %; %2",
"=.Oo$oO##.$@$&o=$$$$&$$&1%,2*+<8<  % 5&3999--&=@$$@$&$@@$$$@$$$@@$=&&&&&$@@$$@$$$@$$@@$$-3-@$>+,; +8",
"&#OX&$$o#>:o&&==&&&=&3@=1 42 +<< 22 <5$-3993-&o&$$$$&&$&&@@&oX:1:15555>1o&==&-@$&$$@@----3@@&>*42 +<",
"oXXo=&$-$.>1O&$&=$o=$-@X>*4 ;**,4,2;*7$@-993@&==$$$$&&&&==.1>5,6>777777271>O=-@&@--@-33-33-@&5*2 ;**",
"1=oo==$$$@&:>O=&&@X.&@=#><2;4 %24444*7$-3393@&$$@@$$&$&oO>75>5+7o=&=&X#15>57:X$--3-@-3-33-3@=5<;;4 +",
"7X&o=o&$&&$&:1X&&$X#.XO#> 2*;< ;2; 4*7=-393-$&&@$@$$$&X>665O$.,1.@-$$&&&&=O115O=-3---@-993-@&5 2;*<*",
"51&&&=$@$=&$$:1.o$=O#:#O>% +2;2244%2;6o@33-$&&&&$&$$o#765Oo$$.5##$-@$====&@&o:>1.&3--3-----@&7 %%2*2",
":5X$@&&$$&$&&&:>#&$o.#OX1%%<+ <8<2 % 7=$33-&&&$$&&&X566#&$&$$X5#:X$3-&o=$$&$@=o:>#=$-3-@$-@$=>++< %<",
".>1&$@@$&&$$&$$:>o&o===&#% *,2<8<;42%5&-33$&$$$$&&.5,5.$&$&&=.7&=#=3@&&&&=o&$@@o:57.$@3-$&&$$1%**2 8",
"=.5&-@$&&&&&&&&o1>o&&$$@# * ;;**;42 %7&393$@$$&==.76>o$&=&=X=o5@$O.@@-$$=o=$$@$=16%7.--@$&$@@>   ;;2",
"==>1@$=&&==&&=&&O>:o=&$@#<;;%  +;42; 7$393@$$&==X5,:&$&=&&==$X5&$X#=-$$$&=&&o.#>66175=@$=&$@$><;;%+ ",
"&@O7X$===o=$&&&&=#>#o&$$:+2*+ +% 46 *5-999$&oo==1,1&&&&=o===$X5=$&OX=$$$&&X#1>>>7>&O77o&$$$$$1+; +++",
"@@=>>oooooo=&==&=X>#==&$#%%2%+%*;;%+%5-393ooo==#65&=&&=oooooo#7=$@&XX@&o#:11O.&.1o&$>,:o==&$@1+%2%+%",
"$&$.7:oo==o=====&oO:o$$@O+%% ;*<*;* +5$-3@o==&X66#&===oo=&ooo:6o&$&O1O.1>#.=-$.1:@--=76#&$$@-1+%%**<",
"====55Xoo=oo==&&=o=1X$@&O 2 **<8<;; +7&--$oX=&#%1&$&==oo==o==:6.===:775:o&@$-3o>X@$&$o75o$@$@> 2 **8",
"&oX=O7Oo=ooo====oXX>1o&=: 4*;+* +;*%%7=$-$o==o6,#=&===o$&==&=:6OO:1>67#o$==$@@#1&=&=@@1,:=&=$>*2;*%*",
"oXXo.55X=oXXoo=oX.X:>X=o1*4*+*   4 ,%7X&$==oX:,5XXo=ooXoX==&o1,75>:.=O1X$$=&$o>O$&=$@@=67.==&5;2*+2%",
"XXXXX:6#XXoooooXX==O>X$&#<4 %%,%*2,2 7o&&&$&O6,OXXoooooo=X.O>6%61Oo===:#=&&&o::=&@$$$$$1,:$$$5*4%% ,",
".XX.X#57.Xoo=ooXo=X.>#&&: ;,2%2  **227.&&&&$#%7ooooX.XoXX#156,6OoXX&=&.1.o&&O1o$o&$&&&$.65$&$7**,2%2",
"X..OOX:71OXooXX.XXX.5>o$:<4,%%2<*%* 67.&=$=&>+1.X.X.#..1555>.:,O.Xo@=o=::o$&1:$$==&&$&=.66=$=7*4,%%4",
".XO#..O57.o=oOX..OO.>7o&1%2 < <8<* ,27.$&==X7%#O.XO:1>751#XXX:,1.XOX.XoX1O&O5X&&$=$$&=X#6,O&=7%2+<,8",
"o.##..O17#ooX.oXXO#.>7=&1%424*<<;*%,25X=$&$.,6:X=.:5671#o.O#.1,1OX.#OXXo#1X1:&&&$$&&=oX.>,1&o5%;2;*<",
"O##.#OOO75XX..XXoO#.57o=1< 244 *2; *47.=$&&O,7::1>55O.ooo.##O>,:##.O.#.&o:>5.$$&&$&=&o=oO65==5< 244 ",
"###OO#.O:7##OO.==O##57oo1<%**%2;*; %25o&&==O%,6771XX.o.oXOOO#>,1#:OO.OXo=#6>&=&&&&&=$$&O.,5=o5+%;* ;",
"O#:O##OOO57::#OX.##O55=o>+%* *44*; %47X=oo$O<8<,5.=X..OoXOO.O>,1.O..OO.o&#6>oo=o====$$$o.,5oX7+ * 44",
"O#OO#O.Xo:61.O..oX#.>7oo1<4 424;;;<%47Oooo&#+61565:#O.#=&o...>,#.O.O##OoX15>.&=&=ooo&&&&X,5=o7<4 424",
".O..XoXo=.57:..O&=OO77o=><4;2,<8<;+%47.ooo=#%1.O:55>5>1X$$oX=:6#.O..##OX:>1#1o=o=&&=&=&$=,5=o7*4;,28",
".OX.o==oXX165O:#.#O#+5oo1<%%2, <+4+ ;7.o=oo#%1.#.XO:1575X$&&&#,OoOO#.OO#1>oO>:o===&$$=&&o,5=X7+% 2,<",
"#OXXo==oo.O571>1>:O5<>oo>%, 2 2 *;  ;6Oo=oo#%>...Xo=X#175:.o&#6..#O#O##:5#XX:>.$&&o=&&$=O,5oX7%2% *,",
"#o=Xo&$&oXX:65775:>,+:oo1%4 ,%** +%% 7OooooO,7OXXXX.o=o.O:1#:>7.=.#.#O:>1o==X1#&==oo=oo&:,5oo7 ; ,%*",
"O=o=$@@&=X.O555655%+6.oo1%*4,<*% ; % 7OooooX7,#X..X..X.Xo&XXO>,7:XO#.O>5X$===.1O&&&&oo=o7,:oo7+;4 **",
"Ooo$--$&=oXX16>77%+%5XXX1+ 2224** 4 47#XoooX5%#X.X.XO..Xo=$$$O677>>>::,>&$=&==O1o&&=o&&X76OXo7+ 2224",
"#X&-@$&===.oO567,%%6:.X.>+2 ,%<8<*; 461.X.Xo>%>O.X..OOOXXo&$@X7OO5676,,#=&&==&=:.==oo$$#66o..6+2,, <",
"Oo@-$&=&&o=X.1,,76,>XOO#7<% % <8+*;2461#.OOo#,6O.O.X.XXXo=&=$.6X=XO>6++7#=ooo&&O1&&&&$o5%5O##6+,%% <",
"X=&&==&$oXoXO7%7167:O.O:7+, %%*%,*   61##:#XX5,1o.X...OXX..X=#6.==..1%6>51O.X=oX#Oo$$=.6%.O#:7+, % *",
"OoXo&=oo==.O>,5:7 >.O#OO5*2% * +*;4  61#OOO..:%6#X.###o=...Xo#6Oo=OO66XXO:>5>::o.>#&$&1,5.OOO,*2% * ",
"#.o=oo#O=X#>,7O5+6O..##.>< %;2; ;*** 61#OXO#OO6%>.XXXOo=OOOOX:6OOO#>,:o...X.>551:>1=-&66OO#..6<%%;;;",
"OX.O#######151><,1OXXXOO7<2% **;;  * 7#OOO#OXX1+6:o...#O#.oX.:,:X.1%6X=XO=o=oo:>776:&1,:oXOOO7* % <;",
"O.oX...O#.o.:7++>XXO...X><2 %%<<< % 261.Xo..XO:7,7:OO#.oO=&.#>6.o.7%1X&o#oooXX=o.O7,7%7OX..XX,*2 % <",
"OOOXXXo.#OX#7+,1#o=O..X=1%  2 88<2% 2,>:Ooo.X.#1,%7:11##O..O.:6O.:,6.#..O.XOX=o===X7+,:XX.X=X6% 22 8",
"#O#XoX=OOO16+<>#####.Xoo>+ 2 ,22;4 4 611:OXXX.#:7+%71:#1##::.:6O#7+1#.#XoooX=&o=ooO7%>&XXXooO7+   ,*",
":#:O.##O#16%,>#O##XXXOOO7+% <<%,2%+ 2,::1:.OO.#:>7,65::1OOO1:>,>1%6O.Xoooo=oooXXXO7%5OX..OOO:6+%*<+%",
">##o.:O.>%+6#O.O#OO..##16+ *<;*,%+%;46>##:##OXO1>1>6%67:::O=o>6#7+1OO#Xoo.Xooo.O>6%7.X.OO##:>,+ **; ",
">1#OOO>6%+7OO:#:###X.##:6< 2 *;,%%+ *271:###OX.:>>>6++,>::O=X1,5%6XOOXX.OOooXX#7,%7.Oo.O.##>5%+*2 *2",
">5>>6%+%65:==##O##OO###:7++* *2<*%+*42751:####O#1>5766+,6>:#O1+++>.O=&....O##17%7>.ooXO####15%+<*  2",
"6,%+, 61.::..:#O::#O####7+2 < <8<* ,265>51:#O#..#155#:6++,6>:1886O:O.X#####176,7OooX..#####:>,%2+<,8",
"<%651:####.::O##:::##:#16+424*<<;*%,271:1:#XX##O#O1>:O#56%+%6288>1>11:1>1>7665O.X=o..OO###::1,%;2;*<",
">>1##1O=O:#.XOO#>:OO##1>,< 244 *2; *46#X#OX&o#.#.O:1OoO#:>,++888%,,,,66%,667:Xo.XoXXXOO###1>> < 244 ",
"51>:#:.X#:#=&O#:1:#####16<%**%2;*; %221Ooo&=O#OOX.::#O.OX#:57688+<++++%,75>O.OXo.XO.XO#####1>%+%;* ;",
"5:O&X:::#:#.O##:::#####:,+ * *44*; %425#XX.::####.#:#O=o##Xo#1>77755>>51oXOoo..X....X######:5%+ * 44",
"55.=.#.O:#O#:::1:O###:>>,<4 424;;; %4271#.O#####:#OO#.X.1:.o#.#:1>#O.XO#.XXOX.#XX#.oO####:>>5+<4 424",
">>>##X&o1:O##O:1#..##:>>,<4;2,<8<;+%4275>:#####.##OXOOO..O#OOO.:#.11:&=#O.OXXXOoX.Xo..###:>>5%*4;,28",
":11#OooO:#.##>:.O####11>,< %2,   4+ 427575>#######.##OXX.XOOXX#1o&:>1XO#OO:XXO..X.....O##:1>5%+% 2,<",
">:#.O.O####OO1:..O#O#:#>,+, 2 2 *;  *%755551##O##O###OOO#....O##..#::#O..XXXXoO.O.o.OX.O#:157%%2% *,",
">:##:#..OX.####X.OOO#:1>6+4 ,%** +%% 26755>>:#OOOXX#:#OX.OXXO..O::1##OOXXo=XoXXX##.XXO.O:#155% ; ,%*",
">::###.#:XoO#:O::##::1156+*4,<*% ;+% %75555>1:###1##:#.oO:OXO...:111:..#XXoXo=oX.O#Xo.#::1155,+;4 **",
"11:#O.O##X..OO###O#11:>5,+ 2224**  %427575>1:1:O####.O.X.#OX..##:>>:#OX..XXXooXXO##XXXO:1:>55,+ 2224",
"1>:#.X..O..#O#O#OO:17>:1,+2 ,%<8<*; 4,775>1:551#.##OO#O.OO...XO#1>>1:##.o.OXXOXXO#XXXOO:5>:15%+2,, <",
">1>#OO.O#...O##::::1565:6<% % < +*;2426751177>:::::O#O..O#..OOO1:11>:##Oo.#OX.XO..:OXX#:565:>%+,%% <",
"511###::#.OOXO#1:::>>7*77+, %%*6%*   2671122511::11#OXO.O#::###1:>>>O##Oo.##O.X.OOXXXo#:>7*7:%+, % *",
">1:#OO:1##OOO###::#1>1*8,*2% * ,*;4  ,%,148715:::####OOO#:11OOO::>1>:##XXO####OOXO.X#.#1>1<8>%*2% * ",
">>1#OO.##::#1:####:>5515,< %;2; ;**+ %++75>1551:####::#:##O.OO#:>>>>1##XX#1:OO#.O#OXX..17>155+<%%;;;",
">1:O##O:1>::1##:####1557+< +%<<** +<+<88%6755:###::#:1:>11#O##O#:>>>:#.oo#11#OO.X.XX.X.:1557,<< + <<",
"7>>>1>>>55775555>5>>>>6, ;4*% * 2*   <<<+%67>>>55>55>555>5>>>1>>>75>>>1:1557>::::::1>>>>>57,%<;2* *;",
"2444444;2242%  24,2242242442222 24442244  222224222424 44242224 224422424442444444;2242% %24,2242242",
"***% ;;% 4**%2%% *4;** *+<442%2;4444;***%%*2+   ,2;4; %%,44 4 +%, ;24<;<;*4***% ;;% 4**%2%% *4;** *+",
"2;;% *%%+*;; ** ;*%*;;;*%+44; ,24;;4444   , +%*<+%;42*;;,2%+  +*;* ;2*;;;*42;;% *%%+*;; ** ;*%*;;;*%",
"6 ;+ ;++++;* %%,,< +;;+;*+ 42**;24 **2%++;,++ **;*;44+ ;,%+%;4  *  ;*+;42;22 ;+ ;++++;* %%,,< +;;+;*",
" ;;+ ;+% % *; %%% ;*;;+*;*;2,+;;44+%*2+   ** *2 *2;44+ ;,%%+  *+ %% *+24%*2 ;;+ ;+% % *; %%% ;*;;+*4",
"<;;+ ;<* ++;**4%% ;<;;+*4<;4%%2<;2% ;<<  +*;<<*  ;<;;+ 4<*%+*;<<42%%;<42%%;<;;+ ;<* ++;**4%% ;<;;+*4",
"8<4 *88<*;%+8<****88 **;88<2,,88<2 2<8<2  %88  **88<%* 88<* ,+8<; ,%88  %%88<4 *88<*;%+8<****88 **;8",
"< 2%%<<+ *+2< *;%+<+ , *<< *,%+< 4;2+< 22; 8<;+*2*<; * ;<;*%, * ;2;*<<22;**< 2%%<<+ *+2< *;%+<+ , *+",
"*  %   +  *;%  *%* + < ;;<  % <+<;  *%;42* *%;*%* %*;  *;2; *;2,;,;***42  ;;  %   +  *;%  *%* + < ;;"
};
